<?xml version="1.0" encoding="UTF-8"?>
<svg xmlns="http://www.w3.org/2000/svg" viewBox="0 0 351.27 455.29"><defs><style>.cls-1{fill:#fff;}.cls-2{fill:#007853;}.cls-3{fill:#9cc064;}.cls-4{fill:#f6d44d;}.cls-5{fill:none;stroke:#fff;stroke-miterlimit:10;stroke-width:4px;}</style></defs><title>Better_Breakfast</title><g id="Layer_2" data-name="Layer 2"><g id="Layer_1-2" data-name="Layer 1"><path class="cls-1" d="M158.28,296.23a3.83,3.83,0,0,0,2.89-2.09l11.32-1.94-11.17,15.5a1.89,1.89,0,0,0-1.54,3.34,1.89,1.89,0,0,0,2.79-2.35l13.16-15.95,5.78,19.74a3.54,3.54,0,0,0,.3,4.94,3.5,3.5,0,0,0,5-.2,3.51,3.51,0,0,0-1.59-5.78L178.12,292l12.41,6.68a2.89,2.89,0,0,0,.45,1.69,2.85,2.85,0,0,0,3.89.85,2.81,2.81,0,0,0,.8-3.89,2.77,2.77,0,0,0-3.64-.9l-11.47-5.63,18.6-3.24a1.57,1.57,0,0,0,1.59.75,1.61,1.61,0,1,0-.45-3.19,1.54,1.54,0,0,0-1.34,1.24l-19.59,1.95,14.1-17.1a5.14,5.14,0,0,0,3.74-9.17,5.14,5.14,0,0,0-7.18,1,5.06,5.06,0,0,0-.49,5.33l-13.31,18.54-4.59-12.61c.05-.1.15-.1.2-.15a1.7,1.7,0,0,0-.1-2.34,1.65,1.65,0,0,0-2.34.15,1.59,1.59,0,0,0,.15,2.29,1.49,1.49,0,0,0,.85.4l3.83,13-20-9.82a1.2,1.2,0,0,0-.2-.9,1.39,1.39,0,0,0-2-.4,1.37,1.37,0,0,0-.4,1.9,1.44,1.44,0,0,0,2,.45v-.05L172.49,289l-11.71,1.14a3.77,3.77,0,0,0-3.54-1.49,3.85,3.85,0,0,0,1,7.62Z"/><path class="cls-1" d="M29.45,148.18H9V54.49H29.58C41.29,54.49,49,61.32,49,78.4c0,10.49-2.56,18.06-8,21.6,5.86,3,9.15,10.24,9.15,22.69C50.07,139.52,43,148.18,29.45,148.18Zm-1.7-80.64H25.18V93.77h2.57c3.9,0,6-2.19,6-13.17C33.72,68.64,31.16,67.54,27.75,67.54Zm-1.1,39H25.18v28.67H28c4.39,0,6.34-3.41,6.34-13.66C34.33,109.75,30.68,106.58,26.65,106.58Z"/><path class="cls-1" d="M104.24,148.18H71.3V54.49h32.82V67.42H87.53v26h13.78v13.17H87.53v28.67h16.71Z"/><path class="cls-1" d="M165,67.42H152.18v81H136v-81H123.27V54.49H165Z"/><path class="cls-1" d="M225.51,67.42H212.7v81H196.47v-81H183.78V54.49h41.73Z"/><path class="cls-1" d="M279.31,148.18H246.37V54.49h32.82V67.42H262.6v26h13.78v13.17H262.6v28.67h16.71Z"/><path class="cls-1" d="M324.69,148.43a17.1,17.1,0,0,1-1.22-5.61c-.24-8.18-.24-11.23-.36-17.21-.25-14-2.2-15.49-4.15-15.49h-2.32v38.31H300.42V54.49h20.25c13.05,0,20,7.44,20,24.64,0,13.06-1.09,20-9.27,24,7.08,4.51,7.81,15.49,7.81,21.47v7.07c0,8.79.49,12.2,1.59,16.72Zm-5.85-81h-2.2V97.07h2.07c3.66,0,6.1-2.93,6.1-15.5C324.81,69.37,322.37,67.42,318.84,67.42Z"/><path class="cls-1" d="M20.94,238H7.09V174.71H21c7.92,0,13.11,4.61,13.11,16.16,0,7.09-1.73,12.2-5.44,14.59,4,2.06,6.18,6.92,6.18,15.33C34.87,232.17,30.09,238,20.94,238Zm-1.15-54.5H18.06v17.73h1.73c2.64,0,4-1.49,4-8.91C23.83,184.27,22.1,183.53,19.79,183.53Zm-.74,26.38h-1v19.38H20c3,0,4.29-2.31,4.29-9.24C24.24,212.06,21.77,209.91,19.05,209.91Z"/><path class="cls-1" d="M65.62,238.19a11.56,11.56,0,0,1-.82-3.79c-.17-5.53-.17-7.59-.25-11.63-.16-9.48-1.48-10.47-2.8-10.47H60.18v25.89h-11V174.71H62.9c8.82,0,13.52,5,13.52,16.65,0,8.82-.74,13.52-6.26,16.24,4.78,3.05,5.27,10.47,5.27,14.51v4.79c0,5.93.33,8.24,1.08,11.29Zm-4-54.74H60.18v20h1.4c2.48,0,4.13-2,4.13-10.47C65.71,184.77,64.06,183.45,61.67,183.45Z"/><path class="cls-1" d="M113,238H90.77V174.71h22.17v8.74H101.73V201h9.32v8.9h-9.32v19.38H113Z"/><path class="cls-1" d="M153.83,238h-11L142,229.2h-6.51l-.83,8.83h-9.15l8.17-63.32h11.78Zm-12.94-17.65-2-25.23-2.55,25.23Z"/><path class="cls-1" d="M196.7,238.19H185.32l-5.19-26-1.57,4.12v21.85h-11V174.71h11v18.71l6.68-18.71h10.47L187,197.79Z"/><path class="cls-1" d="M231,183.45H219.78v19h9.32v8.66h-9.32v27.12h-11V174.71H231Z"/><path class="cls-1" d="M269.25,238H258.2l-.82-8.83h-6.52L250,238h-9.15l8.16-63.32h11.79ZM256.3,220.38l-2-25.23-2.56,25.23Z"/><path class="cls-1" d="M306.1,224.5c0,10.14-5.28,14.51-13.28,14.51-8.49,0-11.87-5.19-11.87-14.34a63.49,63.49,0,0,1,.66-8.9l8.25,1a53.65,53.65,0,0,0-.58,7c0,5.36.91,6.76,2.88,6.76,1.82,0,2.81-1.4,2.81-5.27v-1.74c0-4.69-1.32-9-6.68-15.49s-7.5-11.63-7.5-18.88v-1c0-8.25,3.21-14.51,12.61-14.51,9,0,11.79,5.68,11.79,14.34a54.14,54.14,0,0,1-.58,7.83l-8.32-1a36.17,36.17,0,0,0,.41-5.93c0-5.52-.83-6.84-2.56-6.84s-2.39,1.23-2.39,4.94v1.32c0,3.63,1.4,7.34,5.28,12.29,5.44,7,9.07,14.59,9.07,22.67Z"/><path class="cls-1" d="M345,183.45h-8.66v54.74h-11V183.45h-8.58v-8.74H345Z"/><path class="cls-2" d="M38.12,157.45H16.77l-8.54-8.54V53.76H29.58a20.51,20.51,0,0,1,11.83,3.29c12.2,8.54,16.84,17.08,16.84,29,0,9.64-2.08,15.49-7.57,20.13,5.86,5.73,8.66,12.07,8.66,22.93C59.34,146.23,52.15,157.45,38.12,157.45Zm1.22-57.33c6-2.93,8.9-10.49,8.9-21.72,0-16.71-7.44-23.18-18.66-23.18H9.69v92.23H29.45c13.06,0,19.89-8.17,19.89-24.76C49.34,109.39,45.56,102.56,39.34,100.12ZM27.75,94.51h-3.3V66.81h3.3c4.14,0,6.71,1.83,6.71,13.79C34.46,91.46,32.38,94.51,27.75,94.51ZM28,136H24.45V105.85h2.2c4.76,0,8.42,3.9,8.42,15.74C35.07,131.71,33.11,136,28,136Z"/><path class="cls-2" d="M113.63,157.45H79l-8.42-8.54V53.76h34.28l8.54,8.66V76.69H96.8v16H102l8.54,8.78v14.39H96.8v18.67H105l8.66,8.66Zm-10.12-10V136H86.8V105.85h13.78V94.14H86.8V66.69h16.59V55.22H72v92.23Z"/><path class="cls-2" d="M174.27,76.69H161.46v80.76H143.89l-8.66-8.54V76.69h-4l-8.66-8.53V53.76h43.19l8.54,8.78Zm-10-10V55.22H124V66.69h12.69v81h14.76v-81Z"/><path class="cls-2" d="M234.78,76.69H222v80.76H204.4l-8.66-8.54V76.69h-4l-8.66-8.53V53.76h43.19l8.54,8.78Zm-10-10V55.22H184.52V66.69H197.2v81H212v-81Z"/><path class="cls-2" d="M288.7,157.45H254.06l-8.42-8.54V53.76h34.28l8.54,8.66V76.69H271.87v16h5.24l8.54,8.78v14.39H271.87v18.67H280l8.66,8.66Zm-10.12-10V136H261.86V105.85h13.79V94.14H261.86V66.69h16.6V55.22H247.1v92.23Z"/><path class="cls-2" d="M333,157.58l-7.08-6.84v6.84H308.34l-8.66-8.67V53.76h21c5.24,0,9.63,1.1,12.8,3.66,10.13,8.29,16.47,15,16.47,28.55s-3.78,19.76-9.76,22.93c6.59,5.37,8.3,12.08,8.3,22v9.52c0,9.51.49,12.44,1.71,17.2ZM320.67,55.22H301.15V147.7h14.76V109.39h3c2.8,0,4.63,2.56,4.88,16.22.12,6,.12,9,.36,17.21a17.44,17.44,0,0,0,1,4.88h14.64c-.85-3.67-1.34-7.2-1.34-16v-7.07c0-6.47-.86-17.94-8.66-21.59,8.9-3.66,10.12-10.13,10.12-23.92C339.94,62.18,333.23,55.22,320.67,55.22Zm-2,42.58h-2.8V66.69h2.93c4.27,0,6.71,2.81,6.71,14.88C325.55,94,323.23,97.8,318.71,97.8Z"/><path class="cls-2" d="M26.8,244.29H12.37L6.6,238.52V174.21H21a13.85,13.85,0,0,1,8,2.23C37.27,182.21,40.4,188,40.4,196.06c0,6.51-1.4,10.47-5.11,13.6,4,3.88,5.85,8.17,5.85,15.5C41.14,236.71,36.28,244.29,26.8,244.29Zm.82-38.75c4-2,6-7.09,6-14.67,0-11.3-5-15.67-12.62-15.67H7.59v62.33H20.94c8.82,0,13.44-5.52,13.44-16.74C34.38,211.81,31.82,207.19,27.62,205.54Zm-7.83-3.79H17.56V183h2.23c2.8,0,4.53,1.24,4.53,9.32C24.32,199.69,22.92,201.75,19.79,201.75Zm.16,28H17.56V209.42h1.49c3.21,0,5.68,2.64,5.68,10.63C24.73,226.9,23.42,229.78,20,229.78Z"/><path class="cls-2" d="M71.23,244.37l-4.78-4.61v4.61H54.58l-5.86-5.85V174.21H62.9c3.55,0,6.52.75,8.66,2.48,6.84,5.6,11.13,10.14,11.13,19.29s-2.56,13.35-6.6,15.5c4.46,3.63,5.61,8.16,5.61,14.84v6.43c0,6.43.33,8.41,1.15,11.62ZM62.9,175.2H49.71v62.5h10V211.81h2.06c1.89,0,3.13,1.73,3.3,11,.08,4,.08,6.1.24,11.63a12,12,0,0,0,.66,3.3h9.9c-.58-2.48-.91-4.87-.91-10.8v-4.79c0-4.37-.58-12.12-5.85-14.59,6-2.47,6.84-6.84,6.84-16.16C75.93,179.9,71.39,175.2,62.9,175.2ZM61.58,204H59.69V183h2c2.88,0,4.53,1.9,4.53,10.06C66.2,201.42,64.63,204,61.58,204Z"/><path class="cls-2" d="M119.37,244.29H96l-5.69-5.77V174.21h23.17l5.77,5.86v9.64H108v10.8h3.54l5.77,5.94v9.73H108v12.61h5.52l5.85,5.85Zm-6.84-6.76v-7.75H101.24V209.42h9.31V201.5h-9.31V183h11.21V175.2H91.26v62.33Z"/><path class="cls-2" d="M160.26,244.37h-12.2l-5.77-5.85-.25-3h-.49l-.66,8.82H130.58l-5.68-5.85,8.32-64.31h12.62l5.77,5.86Zm-7-6.84L145,175.2h-11l-8,62.33h8.16l.83-8.82h7.33l.83,8.82Zm-11.88-16.65h-5.6L139,189.63Z"/><path class="cls-2" d="M203.54,244.37h-13.1l-5.61-5.69v5.69h-12l-5.78-5.85V174.21h12l4.12,4.54,1.57-4.54h11.62l5.28,5.45-8.16,24.07ZM196,237.7l-9.56-39.91L195,175.2h-9.4l-7.34,20.61h-.16V175.2h-10v62.5h10V216.26l2.23-5.77,5.44,27.21Z"/><path class="cls-2" d="M237.26,189.71H226.05v12.2h3.54l5.77,5.94v9.48h-9.31v27h-12l-5.77-5.77V174.21h23.17l5.77,5.86ZM230.5,183V175.2H209.31v62.5h10V210.57h9.31V202.9h-9.31V183Z"/><path class="cls-2" d="M275.68,244.37h-12.2l-5.77-5.85-.25-3H257l-.66,8.82H246l-5.69-5.85,8.33-64.31h12.61l5.77,5.86Zm-7-6.84-8.24-62.33h-11l-8,62.33h8.17l.82-8.82h7.34l.82,8.82ZM256.8,220.88h-5.61l3.22-31.25Z"/><path class="cls-2" d="M312.12,230.28c0,9.56-5.36,15-13.53,15-5.11,0-10.38-1.81-15.91-10.64-1.56-2.47-2.22-5.85-2.22-10a69,69,0,0,1,.74-9.4l9.23,1,4,3.79c-.66-3.63-3-7.5-6.51-11.79-5.36-6.51-7.59-11.7-7.59-19.12v-1c0-8.41,3.3-15,13.11-15a12.47,12.47,0,0,1,7,1.65c7.91,5.28,11,9.89,11,18.55a63.42,63.42,0,0,1-.57,8.66l-8.33-.74s2.31,3.79,3.79,6.43A43.82,43.82,0,0,1,312.12,229Zm-6.52-7c0-7.92-3.54-15.42-9-22.34-4-5-5.36-8.83-5.36-12.62V187c0-3.62.58-5.44,2.88-5.44s3.05,2,3.05,7.34a36.19,36.19,0,0,1-.33,5.52l7.34.83a53,53,0,0,0,.5-7.26c0-8.57-2.72-13.85-11.3-13.85-9,0-12.12,5.94-12.12,14v1c0,7.09,2.15,12.2,7.42,18.55,5.44,6.59,6.76,11,6.76,15.82v1.74c0,3.87-1,5.77-3.3,5.77-2.55,0-3.38-2-3.38-7.26a54.3,54.3,0,0,1,.5-6.59l-7.26-.83a64.8,64.8,0,0,0-.57,8.33c0,9,3.29,13.85,11.37,13.85,7.75,0,12.78-4.12,12.78-14Z"/><path class="cls-2" d="M351.27,189.71h-8.65v54.58H330.75l-5.86-5.77V189.71h-2.72l-5.85-5.77v-9.73H345.5l5.77,5.94ZM344.51,183V175.2h-27.2V183h8.57V237.7h10V183Z"/><path class="cls-3" d="M26.89,142.94H15.79V59.86H27.14c7.19,0,15.12-.24,15.12,19.64,0,13.3-4.63,19-10.61,20.86,6.59,1.59,11.59,7.93,11.59,21.47C43.24,141.72,34.09,142.94,26.89,142.94ZM26.65,62.3H18.23V99h6.35c5.73,0,15.24-.73,15.24-19.64C39.82,61.69,32.87,62.3,26.65,62.3Zm-2.07,39H18.23v39.28H26.4c6.23,0,14.28-.61,14.28-18.91C40.68,102.8,30.31,101.34,24.58,101.34Z"/><path class="cls-3" d="M98.87,143.06H78.13V59.86H98.87v2.32H80.57v36.6h15.5v2.31H80.57v39.65h18.3Z"/><path class="cls-3" d="M159.75,62.18H145.23v80.88h-2.44V62.18H128.52V59.86h31.23Z"/><path class="cls-3" d="M220.26,62.18H205.74v80.88H203.3V62.18H189V59.86h31.23Z"/><path class="cls-3" d="M273.94,143.06H253.2V59.86h20.74v2.32h-18.3v36.6h15.5v2.31h-15.5v39.65h18.3Z"/><path class="cls-3" d="M321.76,103.53c8.67,1.59,11,6.47,11,23.55,0,9.27.13,13,.49,15.86h-2.68c-.25-2.81-.37-8.42-.37-16,0-3.66-.24-7.45-.49-10.13-.85-9.76-7.19-12-11.83-12h-8.17v38.07h-2.44V59.86h12.07c7.2,0,14.4.85,14.4,20.74C333.72,96.7,328.47,102.31,321.76,103.53Zm-2.92-41.35h-9.15v40.38h5.49c8.05,0,16.1-3.17,16.1-22.08C331.28,62.18,325.06,62.18,318.84,62.18Z"/><path class="cls-3" d="M19.21,234.48h-7.5V178.34h7.67c4.86,0,10.22-.17,10.22,13.27,0,9-3.13,12.86-7.17,14.1,4.45,1.07,7.83,5.36,7.83,14.51C30.26,233.66,24.07,234.48,19.21,234.48ZM19.05,180H13.36V204.8h4.28c3.88,0,10.31-.49,10.31-13.27C28,179.57,23.25,180,19.05,180Zm-1.41,26.38H13.36v26.54h5.52c4.21,0,9.65-.41,9.65-12.78C28.53,207.36,21.52,206.37,17.64,206.37Z"/><path class="cls-3" d="M63.64,207.85c5.86,1.07,7.42,4.37,7.42,15.91a93,93,0,0,0,.33,10.72H69.58c-.16-1.9-.25-5.69-.25-10.8,0-2.47-.16-5-.33-6.84-.57-6.6-4.86-8.08-8-8.08H55.48v25.72H53.83V178.34H62c4.86,0,9.72.57,9.72,14C71.72,203.23,68.18,207,63.64,207.85Zm-2-27.95H55.48v27.29h3.71c5.44,0,10.89-2.14,10.89-14.92C70.08,179.9,65.87,179.9,61.67,179.9Z"/><path class="cls-3" d="M109.4,234.56h-14V178.34h14v1.56H97v24.74H107.5v1.56H97V233H109.4Z"/><path class="cls-3" d="M148.72,234.56H147l-1.07-9.07H132.07l-1,9.07h-1.73l6.84-56.22h5.61Zm-3.05-10.63-5.19-44h-2.89l-5.27,44Z"/><path class="cls-3" d="M191.09,234.48h-1.64l-8.08-35L173.86,218v16.49h-1.64V178.34h1.64v35.78l14.51-35.78H190l-7.66,18.71Z"/><path class="cls-3" d="M227.45,179.9H215.08v26h10.47v1.57H215.08v27h-1.65V178.34h14Z"/><path class="cls-3" d="M264.14,234.56H262.4l-1.07-9.07H247.48l-1,9.07h-1.73l6.84-56.22h5.61Zm-3.05-10.63-5.2-44H253l-5.28,44Z"/><path class="cls-3" d="M301.65,192.43l-1.65-.16a28.81,28.81,0,0,0,.33-4.7c0-5.36-1.07-9.15-6.52-9.15-3.38,0-6.67,1.89-6.67,8.41v3c0,4.53,2.47,8.73,5.93,13.68,3.63,5.11,8.33,11.79,8.33,18.3v3.47c0,6.67-3.3,10.22-9.07,10.22-4.37,0-8-3-8-10.8a38.22,38.22,0,0,1,.33-5.61l1.57.17a29.8,29.8,0,0,0-.41,5.19c0,7.5,2.88,9.65,6.43,9.65,4.7,0,7.58-3.22,7.58-8.66V222.2c0-6.27-3.79-11.88-8.16-18-3.3-4.61-6.18-8.65-6.18-14.26v-2.72c0-8.08,3.71-10.31,8.41-10.31,6.92,0,8.08,5.45,8.08,10.64A34.62,34.62,0,0,1,301.65,192.43Z"/><path class="cls-3" d="M341.46,179.9h-9.81v54.66H330V179.9h-9.64v-1.56h21.1Z"/><path class="cls-2" d="M31,7.35c.34,6.56-2.36,17.06-7.8,22.41a6.94,6.94,0,0,1-6.17,2,11,11,0,0,1-4.63-1.64,6.9,6.9,0,0,1-2.46-3.47C7.86,19.74,12.05,7.5,18.75,2A7.09,7.09,0,0,1,23.86.46a9.75,9.75,0,0,1,5.2,2.27A6.53,6.53,0,0,1,31,7.35Zm-13.39,8c-1.69,4.48-2.61,10.6-.82,11.32s4.48-3.47,6.41-9.2c1.49-4.44,2.55-11,1-11.52S19.28,10.78,17.6,15.31Z"/><path class="cls-2" d="M39.62,2c.43-1.16,1.06-1.3,2.12-.92a8.37,8.37,0,0,1,2.89,1.74,2.6,2.6,0,0,1,.57,3.22c-2.65,6.8-7.56,19.62-4.81,20.53,3.27,1.11,8.24-16.86,10.4-24.86.34-1.21,1-1.4,2.08-1.06a11.37,11.37,0,0,1,3.22,1.73c1,.77,1,1.16.68,2.27-3.52,13.1-6.6,22.79-11.18,25.92a7.22,7.22,0,0,1-5,1.21,8.33,8.33,0,0,1-4.53-1.64,6.57,6.57,0,0,1-2.22-3.23C32,21.47,36.34,10.39,39.62,2Z"/><path class="cls-2" d="M61.15,30.73c-.29,1-.63,1.2-1.64,1a8.78,8.78,0,0,1-2.6-1.11c-.87-.63-1-1.3-.72-2.65.91-4.43,3.47-12.87,5.68-19.8a24.16,24.16,0,0,1-1.15-2.41c-.44-1.21-.39-1.79.62-2.36C66.07.71,75.13-1.56,78.07,2a11.79,11.79,0,0,1,2.55,6c.34,2.7-.92,4.92-2.8,6.75A30.89,30.89,0,0,1,70,20a71.27,71.27,0,0,0,5.92,8.29c.78.86.54,1.35-.14,1.92a4.66,4.66,0,0,1-2.07,1,3.15,3.15,0,0,1-3.38-.92A40.43,40.43,0,0,1,64,21.86C62.93,24.9,62,27.93,61.15,30.73Zm5-15.23c5.69-2.17,9.4-6.55,9-8.1-.24-1.11-3-1.35-6.07.15C68.19,9.81,67.22,12.56,66.16,15.5Z"/><path class="cls-2" d="M99.7,30.73c-.29,1-.63,1.2-1.64,1a8.67,8.67,0,0,1-2.6-1.11c-.87-.63-1-1.3-.73-2.65.92-4.43,3.47-12.87,5.69-19.8a22.21,22.21,0,0,1-1.16-2.41c-.43-1.21-.38-1.79.63-2.36C104.61.71,113.67-1.56,116.61,2a11.71,11.71,0,0,1,2.55,6c.34,2.7-.91,4.92-2.79,6.75a31.14,31.14,0,0,1-7.81,5.3,71.33,71.33,0,0,0,5.93,8.29c.77.86.53,1.35-.15,1.92a4.61,4.61,0,0,1-2.07,1,3.13,3.13,0,0,1-3.37-.92,40.43,40.43,0,0,1-6.41-8.48C101.48,24.9,100.52,27.93,99.7,30.73Zm5-15.23c5.68-2.17,9.39-6.55,9-8.1-.24-1.11-3-1.35-6.07.15C106.73,9.81,105.77,12.56,104.71,15.5Z"/><path class="cls-2" d="M124,3.45c-.19-1,0-1.15.82-1.35A69.31,69.31,0,0,1,138.77.27a1.68,1.68,0,0,1,1.88,1.35,11.38,11.38,0,0,1,.58,2.7c.05,1.06-.24,1.44-1.3,1.54-2.22.24-5,.58-7.57,1-.72,2-1.59,4.24-2.45,6.6a31.2,31.2,0,0,1,3.71-.33c1.06-.05,1.64.19,2,1.11a11.83,11.83,0,0,1,.68,2.79c.14,1.06-.15,1.35-1.21,1.59-2.46.48-5.2,1-7.61,1.64-.53,1.49-1.06,3-1.49,4.38a47,47,0,0,1,5.78-.77c1.06-.09,1.69.15,2,1.06a10.38,10.38,0,0,1,.72,2.85c.15,1.06-.09,1.39-1.15,1.63-2.75.63-5.83,1.31-8.43,2a2.88,2.88,0,0,1-3-.53,12,12,0,0,1-1.93-2.07,3.83,3.83,0,0,1-.58-3.14c1-4.28,3.71-12.72,5.83-19.08A12.49,12.49,0,0,1,124,3.45Z"/><path class="cls-2" d="M157.37,26a16.45,16.45,0,0,1-3.71,4.62,7.84,7.84,0,0,1-5.49,1.64,11.62,11.62,0,0,1-4.73-1.59,6.28,6.28,0,0,1-2.64-3.28c-2.08-6.65,2.74-19.85,9.49-25.63A6.39,6.39,0,0,1,155.16,0a11.06,11.06,0,0,1,5.73,2.36,5,5,0,0,1,1.54,4.29,21.27,21.27,0,0,1-1.2,6.22c-.29.77-.53,1.3-1.79,1-2.5-.58-3.37-1.83-3.47-4.1,0-1.64.73-3.85-.33-4.29-1.4-.57-5.3,5.88-6.94,10.32-1.78,4.77-2.56,10.31-.87,10.93.92.34,2.17-.53,4.14-2.74a4.44,4.44,0,0,1,5-1.3C158.43,23.26,158.19,24.37,157.37,26Z"/><path class="cls-2" d="M175.87,5c-2.21,6-6.21,18.79-8.19,25.82-.29,1.06-.67,1.26-1.69,1a10.59,10.59,0,0,1-3-1.4c-.87-.63-1-1.25-.73-2.65,1.16-5.49,5.26-19.85,7.38-25.88a1.44,1.44,0,0,1,2.12-1,13.25,13.25,0,0,1,3.42,1.83A1.66,1.66,0,0,1,175.87,5Z"/><path class="cls-2" d="M181,31c-.34,1-.68,1.25-1.69,1a9.3,9.3,0,0,1-2.89-1.35c-.82-.63-1-1.3-.67-2.65.91-4.43,3.47-12.87,5.63-19.8a22.58,22.58,0,0,1-1.1-2.41c-.49-1.21-.39-1.79.62-2.36,4.72-2.65,13.83-5,16.72-1.4a11.38,11.38,0,0,1,2.56,6c.33,2.7-1.06,4.82-2.85,6.75-2.89,3.23-8.72,6.36-13.78,7.85C182.62,25.47,181.7,28.32,181,31ZM194.62,7.4c-.15-1.06-2.94-1.11-6,.29-.87,2.32-1.83,5.06-2.84,8C191.72,13.52,195,9.33,194.62,7.4Z"/><path class="cls-2" d="M204.64,3.45c-.2-1,0-1.15.81-1.35A69.51,69.51,0,0,1,219.38.27a1.68,1.68,0,0,1,1.88,1.35,11.38,11.38,0,0,1,.58,2.7c0,1.06-.24,1.44-1.3,1.54-2.22.24-5,.58-7.57,1-.72,2-1.59,4.24-2.46,6.6a31.39,31.39,0,0,1,3.71-.33c1.06-.05,1.64.19,2,1.11a11.33,11.33,0,0,1,.67,2.79c.15,1.06-.14,1.35-1.2,1.59-2.46.48-5.2,1-7.61,1.64-.53,1.49-1.06,3-1.5,4.38a47.29,47.29,0,0,1,5.78-.77c1.07-.09,1.69.15,2,1.06a10.38,10.38,0,0,1,.72,2.85c.15,1.06-.09,1.39-1.16,1.63-2.74.63-5.83,1.31-8.43,2a2.87,2.87,0,0,1-3-.53,11.58,11.58,0,0,1-1.93-2.07,3.83,3.83,0,0,1-.58-3.14c1-4.28,3.71-12.72,5.83-19.08A12.49,12.49,0,0,1,204.64,3.45Z"/><path class="cls-2" d="M246.6,6.92c-.67,1.78-1.44,4.05-2.31,6.51,1.16-.15,2.36-.29,3.56-.34a1.8,1.8,0,0,1,2,1.11,12.45,12.45,0,0,1,.68,2.79c.14,1.06-.1,1.4-1.21,1.59-2.31.44-4.91,1-7.23,1.54-1.25,3.81-2.46,7.62-3.32,10.51-.34,1.06-.87,1.25-1.88,1a10.43,10.43,0,0,1-3-1.3c-.87-.62-.91-1.3-.67-2.65.72-3.95,3.76-13.92,6.26-21.1a15.21,15.21,0,0,1-1.11-3.09c-.24-1,.1-1.11.82-1.35A68.34,68.34,0,0,1,252.77.27a1.73,1.73,0,0,1,2,1.3,7.55,7.55,0,0,1,.68,2.8c.05,1.06-.19,1.35-1.25,1.49C251.9,6.15,249.2,6.54,246.6,6.92Z"/><path class="cls-2" d="M275.9,7.35c.34,6.56-2.36,17.06-7.81,22.41a6.93,6.93,0,0,1-6.17,2,11,11,0,0,1-4.62-1.64,6.78,6.78,0,0,1-2.46-3.47C252.77,19.74,257,7.5,263.66,2a7.08,7.08,0,0,1,5.11-1.5A9.79,9.79,0,0,1,274,2.73,6.62,6.62,0,0,1,275.9,7.35Zm-13.4,8c-1.68,4.48-2.6,10.6-.82,11.32s4.48-3.47,6.41-9.2c1.5-4.44,2.56-11,1-11.52S264.19,10.78,262.5,15.31Z"/><path class="cls-2" d="M281.87,30.73c-.29,1-.63,1.2-1.64,1a8.67,8.67,0,0,1-2.6-1.11c-.87-.63-1-1.3-.72-2.65.91-4.43,3.47-12.87,5.68-19.8a24.16,24.16,0,0,1-1.15-2.41c-.44-1.21-.39-1.79.62-2.36C286.79.71,295.84-1.56,298.78,2a11.71,11.71,0,0,1,2.56,6c.34,2.7-.92,4.92-2.8,6.75a30.89,30.89,0,0,1-7.8,5.3,71.27,71.27,0,0,0,5.92,8.29c.77.86.53,1.35-.14,1.92a4.66,4.66,0,0,1-2.07,1,3.15,3.15,0,0,1-3.38-.92,40.43,40.43,0,0,1-6.4-8.48C283.65,24.9,282.69,27.93,281.87,30.73Zm5-15.23c5.69-2.17,9.4-6.55,9-8.1-.24-1.11-3-1.35-6.07.15C288.91,9.81,287.94,12.56,286.88,15.5Z"/><path class="cls-2" d="M321.28,25.33c-1.06,2-2,3.85-2.84,5.49-.53,1-.92,1.06-1.83.68a6,6,0,0,1-2.31-1.59c-.68-.77-.68-1.45-.1-2.8A243.26,243.26,0,0,1,327.79,1.86,3.37,3.37,0,0,1,331.11.08a19.9,19.9,0,0,1,6.12,1.35c1.16.48,1.3,1.2,1.11,2.41-.87,6.07-2,17.68-2.6,26.6-.05,1.11-.34,1.39-1.4,1.39a10.41,10.41,0,0,1-3-.43c-1-.34-1.25-1-1.25-2.41s.1-3.37.19-5.44C327.21,24.08,323.74,24.65,321.28,25.33Zm9.35-7.71c.29-3.81.68-7.76,1.11-11.18C329.86,9.62,327.4,14,325,18.34,326.87,18.05,328.8,17.76,330.63,17.62Z"/><path class="cls-4" d="M5.27,360.11c-.3,1.05-.65,1.25-1.7,1A9,9,0,0,1,.87,360c-.9-.65-1-1.35-.75-2.75,1-4.6,3.6-13.35,5.9-20.55a23,23,0,0,1-1.2-2.5c-.45-1.25-.4-1.85.65-2.45,4.9-2.75,14.3-5.1,17.35-1.45a12.19,12.19,0,0,1,2.65,6.25c.35,2.8-.95,5.1-2.9,7a32.27,32.27,0,0,1-8.1,5.5,73.75,73.75,0,0,0,6.15,8.6c.8.9.55,1.4-.15,2a4.78,4.78,0,0,1-2.15,1.05,3.25,3.25,0,0,1-3.5-1,41.91,41.91,0,0,1-6.65-8.8C7.12,354.06,6.12,357.21,5.27,360.11Zm5.2-15.8c5.9-2.25,9.75-6.8,9.35-8.4-.25-1.15-3.1-1.4-6.3.15C12.57,338.41,11.57,341.26,10.47,344.31Z"/><path class="cls-4" d="M30.52,331.81c-.2-1,.05-1.2.85-1.4a71.31,71.31,0,0,1,14.45-1.9,1.74,1.74,0,0,1,2,1.4,11.72,11.72,0,0,1,.6,2.8c.05,1.1-.25,1.5-1.35,1.6-2.3.25-5.15.6-7.85,1.05-.75,2.05-1.65,4.4-2.55,6.85a31.46,31.46,0,0,1,3.85-.35c1.1-.05,1.7.2,2.05,1.15a12.25,12.25,0,0,1,.7,2.9c.15,1.1-.15,1.4-1.25,1.65-2.55.5-5.4,1.05-7.9,1.7-.55,1.55-1.1,3.1-1.55,4.55a46.84,46.84,0,0,1,6-.8c1.1-.1,1.75.15,2.1,1.1a11.13,11.13,0,0,1,.75,2.95c.15,1.1-.1,1.45-1.2,1.7-2.85.65-6.05,1.35-8.75,2.1a3,3,0,0,1-3.15-.55,12.15,12.15,0,0,1-2-2.15,4,4,0,0,1-.6-3.25c1-4.45,3.85-13.2,6-19.8A13.22,13.22,0,0,1,30.52,331.81Z"/><path class="cls-4" d="M52.77,354.51c-1.1,2.05-2.1,4-3,5.7-.55,1.05-1,1.1-1.9.7a6.28,6.28,0,0,1-2.4-1.65c-.7-.8-.7-1.5-.1-2.9a252.79,252.79,0,0,1,14.1-26.2A3.5,3.5,0,0,1,63,328.31a20.74,20.74,0,0,1,6.35,1.4c1.2.5,1.35,1.25,1.15,2.5-.9,6.3-2,18.35-2.7,27.6,0,1.15-.35,1.45-1.45,1.45a10.71,10.71,0,0,1-3.1-.45c-1-.35-1.3-1-1.3-2.5s.1-3.5.2-5.65C58.92,353.21,55.32,353.81,52.77,354.51Zm9.7-8c.3-3.95.7-8.05,1.15-11.6-1.95,3.3-4.5,7.8-7,12.35C58.57,347,60.57,346.66,62.47,346.51Z"/><path class="cls-4" d="M78.52,360.81c-1.7.5-2.6.3-3.45-.45a10.94,10.94,0,0,1-2-2.2,3.4,3.4,0,0,1-.6-3.05,230.22,230.22,0,0,1,8.1-25.55,1.49,1.49,0,0,1,2.2-1,12.79,12.79,0,0,1,3.6,1.8c.95.75,1,1.25.6,2.4-2.1,5.5-5,13.75-7.3,20.95a42.27,42.27,0,0,1,5.7-.75c1.1-.1,1.7.1,2.1,1.1a10.67,10.67,0,0,1,.75,2.95c.2,1.1.15,1.4-1.2,1.7C84.17,359.36,81.22,360,78.52,360.81Z"/><path class="cls-4" d="M120,333.36c-2.3,6.2-6.45,19.5-8.5,26.8-.3,1.1-.7,1.3-1.75,1a11,11,0,0,1-3.1-1.45c-.9-.65-1.05-1.3-.75-2.75,1.2-5.7,5.45-20.6,7.65-26.85a1.49,1.49,0,0,1,2.2-1.05,13.49,13.49,0,0,1,3.55,1.9A1.71,1.71,0,0,1,120,333.36Z"/><path class="cls-4" d="M140.57,330.11c.45-1.25,1.1-1.45,2.2-1.1a11.56,11.56,0,0,1,2.25,1.05c1.1.7,1.45,1.3.95,2.9-2.25,7.15-5.95,19.05-8,26.75-.3,1.2-1.1,1.45-2.3,1.15a13.74,13.74,0,0,1-2.8-1.15,3.56,3.56,0,0,1-1.75-2.55,99.59,99.59,0,0,1-1.85-15.2c-1.25,4-3.4,11-5.4,18.05-.3,1.05-.8,1.35-1.9,1a12.28,12.28,0,0,1-2.15-1.05c-1.1-.7-1.4-1.2-.95-3.35,1.1-5.1,5.4-19.25,7.85-26.4.35-.95.85-1.3,1.6-1.3a13.06,13.06,0,0,1,4.2,1.45,2.44,2.44,0,0,1,1.5,2.5c.3,4.7.65,10.45,1.1,15.8C136.42,343.31,138.87,334.91,140.57,330.11Z"/><path class="cls-4" d="M166.32,342.86c-2.8-.4-3.9-2.05-3.85-4.35.05-1.75.45-4.2-.3-4.45-1.5-.5-5.1,4.65-7.5,10.35-2,4.85-2.8,10.95-1,11.75,1.45.65,3.75-2.15,5.45-5.65-2.55.15-3.75-1.1-4-3.9-.1-.9.35-1.15,1.2-1.35a59,59,0,0,1,6.1-1.15c1.45-.2,2.2.05,2.85.95a16.87,16.87,0,0,1,1.15,2,3.41,3.41,0,0,1,0,3.25c-1.9,4.6-4.45,8.1-7.1,9.95a7.11,7.11,0,0,1-5.5,1.25,11.81,11.81,0,0,1-4.7-1.9,7,7,0,0,1-2.55-3.7c-1.95-7.2,3.3-21,10.75-26.5a6.59,6.59,0,0,1,4.85-1.05,10.16,10.16,0,0,1,5.4,2.45,5.8,5.8,0,0,1,1.6,4.35,25.33,25.33,0,0,1-1,6.6C167.72,342.66,167.37,343,166.32,342.86Z"/><path class="cls-4" d="M174.57,360.11c-.3,1.05-.65,1.25-1.7,1a9,9,0,0,1-2.7-1.15c-.9-.65-1-1.35-.75-2.75,1-4.6,3.6-13.35,5.9-20.55a23,23,0,0,1-1.2-2.5c-.45-1.25-.4-1.85.65-2.45,4.9-2.75,14.3-5.1,17.35-1.45a12.19,12.19,0,0,1,2.65,6.25c.35,2.8-1,5.1-2.9,7a32.27,32.27,0,0,1-8.1,5.5,73.75,73.75,0,0,0,6.15,8.6c.8.9.55,1.4-.15,2a4.78,4.78,0,0,1-2.15,1.05,3.25,3.25,0,0,1-3.5-1,41.91,41.91,0,0,1-6.65-8.8C176.42,354.06,175.42,357.21,174.57,360.11Zm5.2-15.8c5.9-2.25,9.75-6.8,9.35-8.4-.25-1.15-3.1-1.4-6.3.15C181.87,338.41,180.87,341.26,179.77,344.31Z"/><path class="cls-4" d="M199.82,331.81c-.2-1,.05-1.2.85-1.4a71.31,71.31,0,0,1,14.45-1.9,1.74,1.74,0,0,1,1.95,1.4,11.72,11.72,0,0,1,.6,2.8c.05,1.1-.25,1.5-1.35,1.6-2.3.25-5.15.6-7.85,1.05-.75,2.05-1.65,4.4-2.55,6.85a31.46,31.46,0,0,1,3.85-.35c1.1-.05,1.7.2,2,1.15a12.25,12.25,0,0,1,.7,2.9c.15,1.1-.15,1.4-1.25,1.65-2.55.5-5.4,1.05-7.9,1.7-.55,1.55-1.1,3.1-1.55,4.55a46.84,46.84,0,0,1,6-.8c1.1-.1,1.75.15,2.1,1.1a11.13,11.13,0,0,1,.75,2.95c.15,1.1-.1,1.45-1.2,1.7-2.85.65-6.05,1.35-8.75,2.1a3,3,0,0,1-3.15-.55,12.15,12.15,0,0,1-2-2.15,4,4,0,0,1-.6-3.25c1-4.45,3.85-13.2,6.05-19.8A13.22,13.22,0,0,1,199.82,331.81Z"/><path class="cls-4" d="M221.52,333.21c-.5-1.2-.45-1.85.65-2.45,4.9-2.8,15.6-4.55,18.75,4.2,2.8,7.75-2.6,21.15-16.55,26.35a3.3,3.3,0,0,1-3.5-.4,28.4,28.4,0,0,1-2.85-2.65c-1-1.05-1.5-1.7-.8-4.3,1.4-5.15,3.55-12.35,5.45-18.25A23.35,23.35,0,0,1,221.52,333.21Zm13.25,4c-.55-1.5-2.4-2.55-5-1.6-2.2,5.95-4.3,12.55-6.2,19.1C233.22,349.86,235.82,340.26,234.77,337.16Z"/><path class="cls-4" d="M257,333.36c-2.3,6.2-6.45,19.5-8.5,26.8-.3,1.1-.7,1.3-1.76,1a11,11,0,0,1-3.09-1.45c-.91-.65-1-1.3-.75-2.75,1.2-5.7,5.45-20.6,7.65-26.85a1.49,1.49,0,0,1,2.2-1.05,13.49,13.49,0,0,1,3.55,1.9A1.71,1.71,0,0,1,257,333.36Z"/><path class="cls-4" d="M261.17,331.81c-.2-1,.05-1.2.85-1.4a71.31,71.31,0,0,1,14.45-1.9,1.74,1.74,0,0,1,1.95,1.4,11.72,11.72,0,0,1,.6,2.8c.05,1.1-.25,1.5-1.35,1.6-2.3.25-5.15.6-7.85,1.05-.75,2.05-1.65,4.4-2.55,6.85a31.46,31.46,0,0,1,3.85-.35c1.1-.05,1.7.2,2.05,1.15a12.25,12.25,0,0,1,.7,2.9c.15,1.1-.15,1.4-1.25,1.65-2.55.5-5.4,1.05-7.9,1.7-.55,1.55-1.1,3.1-1.55,4.55a46.84,46.84,0,0,1,6-.8c1.1-.1,1.75.15,2.1,1.1a11.13,11.13,0,0,1,.75,2.95c.15,1.1-.1,1.45-1.2,1.7-2.85.65-6.05,1.35-8.75,2.1a3,3,0,0,1-3.15-.55,12.15,12.15,0,0,1-2-2.15,4,4,0,0,1-.6-3.25c1-4.45,3.85-13.2,6.05-19.8A13.22,13.22,0,0,1,261.17,331.81Z"/><path class="cls-4" d="M298.72,330.11c.45-1.25,1.1-1.45,2.2-1.1a11.56,11.56,0,0,1,2.25,1.05c1.1.7,1.45,1.3.95,2.9-2.25,7.15-5.95,19.05-8,26.75-.3,1.2-1.1,1.45-2.3,1.15a13.74,13.74,0,0,1-2.8-1.15,3.56,3.56,0,0,1-1.75-2.55,99.59,99.59,0,0,1-1.85-15.2c-1.25,4-3.4,11-5.4,18.05-.3,1.05-.8,1.35-1.9,1A11.94,11.94,0,0,1,278,360c-1.1-.7-1.4-1.2-1-3.35,1.11-5.1,5.41-19.25,7.86-26.4.35-.95.85-1.3,1.6-1.3a13.06,13.06,0,0,1,4.2,1.45,2.44,2.44,0,0,1,1.5,2.5c.3,4.7.65,10.45,1.1,15.8C294.57,343.31,297,334.91,298.72,330.11Z"/><path class="cls-4" d="M322.27,334.56c-2.7,7.8-5.85,17.9-8,25.75-.3,1.05-.65,1.25-1.71.95a10.39,10.39,0,0,1-3.09-1.45c-.91-.65-1-1.4-.7-2.8,1-5.25,3.9-15.05,6-21.4-1.21.2-2.4.45-3.15.6-1.06.2-1.6.1-2.15-.8a14.49,14.49,0,0,1-1.41-3.6c-.19-1,.16-1.25,1-1.45a101.12,101.12,0,0,1,16.75-1.9c1.15,0,1.55.3,1.9.8a9.29,9.29,0,0,1,1.25,3.3c.15,1.05.05,1.35-1.15,1.45C326.12,334.16,324,334.36,322.27,334.56Z"/><path class="cls-4" d="M330.17,352.81c2.95,2.6,5.8,3.45,7.05,2.35,1.45-1.2-3.75-4.35-6.4-7.4a8.3,8.3,0,0,1-1.1-9.1,22,22,0,0,1,7.5-8.9,6,6,0,0,1,5.15-.7,11.77,11.77,0,0,1,4.35,2.85,5.34,5.34,0,0,1,1.1,4.6,33.83,33.83,0,0,1-2.65,8.25c-.5.95-1,1.15-1.9.75-2.55-1.1-3.7-2.65-3.25-4.65.4-1.8,1.9-5.6,1.3-5.9-1.05-.6-7.5,6-4.8,9.65,3,3.9,9.4,6.45,7.05,11-1.7,3.3-4.45,5.75-8.55,5.75-3.3,0-6.51-1.55-9.3-5.55-1.46-2.05-1.25-2.8-.3-3.3A4.68,4.68,0,0,1,330.17,352.81Z"/><path class="cls-2" d="M32.93,407.22c-.2.69-.43.82-1.13.66a6,6,0,0,1-1.78-.76c-.59-.43-.66-.89-.49-1.82.62-3,2.37-8.81,3.89-13.56a17.79,17.79,0,0,1-.79-1.65c-.3-.83-.27-1.23.43-1.62,3.23-1.82,9.44-3.37,11.45-1a8,8,0,0,1,1.75,4.13,5.42,5.42,0,0,1-1.92,4.62A21.65,21.65,0,0,1,39,399.89a47.92,47.92,0,0,0,4.06,5.68c.53.59.36.92-.1,1.32a3.22,3.22,0,0,1-1.42.69,2.14,2.14,0,0,1-2.31-.63,27.57,27.57,0,0,1-4.39-5.81C34.15,403.22,33.49,405.3,32.93,407.22Zm3.43-10.43c3.89-1.49,6.43-4.49,6.17-5.55-.17-.76-2.05-.92-4.16.1C37.74,392.89,37.08,394.77,36.36,396.79Z"/><path class="cls-2" d="M49.59,388.53c-.13-.66,0-.79.56-.92a47.17,47.17,0,0,1,9.54-1.25,1.15,1.15,0,0,1,1.29.92,7.47,7.47,0,0,1,.39,1.85c0,.72-.16,1-.89,1.05-1.52.17-3.4.4-5.18.7-.49,1.35-1.09,2.9-1.68,4.52a20.49,20.49,0,0,1,2.54-.23c.73,0,1.12.13,1.35.76a7.81,7.81,0,0,1,.46,1.91c.1.73-.1.93-.82,1.09-1.68.33-3.57.69-5.22,1.12-.36,1-.72,2.05-1,3a30,30,0,0,1,4-.53c.73-.07,1.16.1,1.39.72a7.34,7.34,0,0,1,.49,1.95c.1.73-.06,1-.79,1.12-1.88.43-4,.9-5.78,1.39a2,2,0,0,1-2.07-.36,8.06,8.06,0,0,1-1.32-1.42,2.59,2.59,0,0,1-.4-2.15c.66-2.93,2.54-8.71,4-13.07A8.59,8.59,0,0,1,49.59,388.53Z"/><path class="cls-2" d="M62.76,402.4c1.94,1.71,3.83,2.27,4.65,1.55s-2.47-2.87-4.22-4.89a5.47,5.47,0,0,1-.73-6,14.49,14.49,0,0,1,4.95-5.88,3.94,3.94,0,0,1,3.4-.46,7.75,7.75,0,0,1,2.87,1.88,3.51,3.51,0,0,1,.73,3,22.31,22.31,0,0,1-1.75,5.44c-.33.63-.66.76-1.26.5-1.68-.73-2.44-1.75-2.14-3.07s1.25-3.7.86-3.9c-.7-.39-5,4-3.17,6.37,2,2.58,6.2,4.26,4.65,7.26A6.22,6.22,0,0,1,66,408c-2.18,0-4.29-1-6.14-3.66-1-1.36-.82-1.85-.2-2.18A3.08,3.08,0,0,1,62.76,402.4Z"/><path class="cls-2" d="M78.17,407.38c-.23.69-.46.86-1.16.66a6.49,6.49,0,0,1-2-.92c-.56-.43-.66-.89-.46-1.82.63-3,2.38-8.81,3.86-13.56a17,17,0,0,1-.76-1.65c-.33-.83-.26-1.23.43-1.62,3.24-1.82,9.47-3.4,11.45-1a7.78,7.78,0,0,1,1.75,4.13c.23,1.85-.72,3.3-1.94,4.62-2,2.21-6,4.35-9.44,5.38C79.29,403.62,78.66,405.57,78.17,407.38Zm9.34-16.14c-.1-.73-2-.76-4.09.2-.6,1.58-1.26,3.46-2,5.48C85.53,395.43,87.74,392.56,87.51,391.24Z"/><path class="cls-2" d="M107.21,391.21c.23,4.49-1.62,11.68-5.35,15.35a4.74,4.74,0,0,1-4.22,1.35,7.62,7.62,0,0,1-3.17-1.12,4.67,4.67,0,0,1-1.68-2.38c-1.42-4.72,1.45-13.1,6-16.9a4.83,4.83,0,0,1,3.5-1,6.72,6.72,0,0,1,3.56,1.55A4.54,4.54,0,0,1,107.21,391.21ZM98,396.65c-1.15,3.07-1.78,7.26-.56,7.76s3.07-2.38,4.39-6.3c1-3,1.75-7.56.7-7.89S99.19,393.55,98,396.65Z"/><path class="cls-2" d="M122.42,387.41c.3-.82.73-1,1.45-.72a7.5,7.5,0,0,1,1.49.69c.73.46,1,.86.63,1.91-1.49,4.72-3.93,12.58-5.28,17.66-.2.79-.73,1-1.52.76a8.57,8.57,0,0,1-1.85-.76,2.39,2.39,0,0,1-1.16-1.68,66.82,66.82,0,0,1-1.22-10c-.82,2.61-2.24,7.27-3.56,11.92-.2.69-.53.89-1.26.66a8.92,8.92,0,0,1-1.42-.69c-.72-.47-.92-.8-.62-2.21.72-3.37,3.56-12.71,5.18-17.43.23-.63.56-.86,1.06-.86a8.6,8.6,0,0,1,2.77,1,1.61,1.61,0,0,1,1,1.65c.2,3.1.43,6.9.72,10.43C119.68,396.13,121.3,390.58,122.42,387.41Z"/><path class="cls-2" d="M128.56,402.4c1.95,1.71,3.83,2.27,4.65,1.55s-2.47-2.87-4.22-4.89a5.47,5.47,0,0,1-.73-6,14.49,14.49,0,0,1,5-5.88,3.94,3.94,0,0,1,3.4-.46,7.67,7.67,0,0,1,2.87,1.88,3.51,3.51,0,0,1,.73,3,22.31,22.31,0,0,1-1.75,5.44c-.33.63-.66.76-1.25.5-1.69-.73-2.45-1.75-2.15-3.07s1.25-3.7.86-3.9c-.7-.39-4.95,4-3.17,6.37,1.95,2.58,6.2,4.26,4.65,7.26a6.22,6.22,0,0,1-5.64,3.8c-2.18,0-4.29-1-6.14-3.66-1-1.36-.82-1.85-.2-2.18A3.08,3.08,0,0,1,128.56,402.4Z"/><path class="cls-2" d="M149.55,389.56c-1.52,4.09-4.26,12.87-5.61,17.69-.2.72-.47.86-1.16.66a7.4,7.4,0,0,1-2.05-1c-.59-.43-.69-.86-.49-1.81.79-3.77,3.6-13.6,5-17.73.3-.79.72-.92,1.45-.69a9,9,0,0,1,2.35,1.25A1.14,1.14,0,0,1,149.55,389.56Z"/><path class="cls-2" d="M163.14,400.65a4.43,4.43,0,0,1-1.75,3.63,20.05,20.05,0,0,1-6.8,3.76c-1.18.4-1.61.36-2.4-.26a13.62,13.62,0,0,1-2-1.88,2.12,2.12,0,0,1-.56-2.48c.76-3.27,2.41-8.22,3.66-12.15-.23-.43-.49-1-.69-1.48-.3-.83-.26-1.26.46-1.62,3.27-1.75,9.57-3,11.49-.72a6.5,6.5,0,0,1,1.52,3.69,5.79,5.79,0,0,1-2.21,4.49,18.88,18.88,0,0,1-2.38,1.78A4,4,0,0,1,163.14,400.65Zm-9.54,3.23c3.14-1,5.38-2.67,5.25-3.86-.06-.69-1.65-1.15-4-.26C154.46,401.14,154,402.53,153.6,403.88Zm8.49-13c-.1-.73-1.88-.79-4.26.39-.46,1.29-1,2.78-1.55,4.39C159.88,394.34,162.25,391.84,162.09,390.88Z"/><path class="cls-2" d="M169.58,407.68a2.1,2.1,0,0,1-2.28-.3,7.32,7.32,0,0,1-1.32-1.45,2.28,2.28,0,0,1-.4-2,153,153,0,0,1,5.35-16.86,1,1,0,0,1,1.45-.66,8.3,8.3,0,0,1,2.38,1.19c.63.49.69.82.39,1.58-1.38,3.63-3.3,9.08-4.81,13.83a27,27,0,0,1,3.76-.49c.72-.07,1.12.06,1.38.72a7,7,0,0,1,.5,1.95c.13.73.1.92-.79,1.12C173.31,406.72,171.36,407.15,169.58,407.68Z"/><path class="cls-2" d="M185.09,401.18c-.73,2.24-1.39,4.45-2,6.4-.2.72-.46.82-1.15.63a6.13,6.13,0,0,1-2-1c-.56-.47-.69-.9-.46-1.85.33-1.49.89-3.6,1.52-5.88-.5-3.93-1.22-8.68-1.72-11.95-.1-.72.07-1,.76-1.05a6.53,6.53,0,0,1,2.25,0c.69.17,1,.56,1.15,1.49.33,1.65.73,4.32,1.06,6.93,1.68-2.64,3.5-5.61,5.08-8.19.4-.66.76-.72,1.39-.33a5,5,0,0,1,1.51,1.36c.43.59.37,1-.06,1.91C191.33,391.93,188,397,185.09,401.18Z"/><path class="cls-2" d="M203.67,402.4c1.94,1.71,3.82,2.27,4.65,1.55s-2.48-2.87-4.23-4.89a5.47,5.47,0,0,1-.72-6,14.49,14.49,0,0,1,4.95-5.88,3.94,3.94,0,0,1,3.4-.46,7.84,7.84,0,0,1,2.87,1.88,3.55,3.55,0,0,1,.73,3,22.31,22.31,0,0,1-1.75,5.44c-.33.63-.66.76-1.26.5-1.68-.73-2.44-1.75-2.14-3.07s1.25-3.7.86-3.9c-.7-.39-4.95,4-3.17,6.37,1.94,2.58,6.2,4.26,4.65,7.26a6.23,6.23,0,0,1-5.64,3.8c-2.18,0-4.29-1-6.14-3.66-1-1.36-.83-1.85-.2-2.18A3.08,3.08,0,0,1,203.67,402.4Z"/><path class="cls-2" d="M231.06,391.21c.23,4.49-1.62,11.68-5.35,15.35a4.75,4.75,0,0,1-4.22,1.35,7.62,7.62,0,0,1-3.17-1.12,4.74,4.74,0,0,1-1.69-2.38c-1.41-4.72,1.46-13.1,6-16.9a4.85,4.85,0,0,1,3.5-1,6.72,6.72,0,0,1,3.57,1.55A4.54,4.54,0,0,1,231.06,391.21Zm-9.18,5.44c-1.15,3.07-1.78,7.26-.56,7.76s3.07-2.38,4.39-6.3c1-3,1.75-7.56.69-7.89S223,393.55,221.88,396.65Z"/><path class="cls-2" d="M237,387.54c.3-.79.73-.89,1.46-.62a5.73,5.73,0,0,1,2,1.19,1.79,1.79,0,0,1,.39,2.21c-1.81,4.65-5.18,13.43-3.3,14.06,2.25.76,5.65-11.55,7.13-17,.23-.83.69-1,1.42-.73a8,8,0,0,1,2.21,1.19c.66.53.66.79.46,1.55-2.41,9-4.52,15.61-7.65,17.76a4.9,4.9,0,0,1-3.4.82,5.64,5.64,0,0,1-3.11-1.12,4.51,4.51,0,0,1-1.51-2.21C231.75,400.88,234.72,393.29,237,387.54Z"/><path class="cls-2" d="M251.71,407.22c-.2.69-.43.82-1.12.66a6,6,0,0,1-1.78-.76c-.6-.43-.66-.89-.5-1.82.63-3,2.38-8.81,3.9-13.56a13.82,13.82,0,0,1-.79-1.65c-.3-.83-.27-1.23.42-1.62,3.24-1.82,9.44-3.37,11.46-1a8.1,8.1,0,0,1,1.75,4.13,5.42,5.42,0,0,1-1.92,4.62,21.65,21.65,0,0,1-5.34,3.63,47.92,47.92,0,0,0,4.06,5.68c.52.59.36.92-.1,1.32a3.22,3.22,0,0,1-1.42.69A2.14,2.14,0,0,1,258,407a27.24,27.24,0,0,1-4.39-5.81C252.93,403.22,252.27,405.3,251.71,407.22Zm3.44-10.43c3.89-1.49,6.43-4.49,6.17-5.55-.17-.76-2.05-.92-4.16.1C256.53,392.89,255.87,394.77,255.15,396.79Z"/><path class="cls-2" d="M277.26,404a11.57,11.57,0,0,1-2.54,3.17,5.42,5.42,0,0,1-3.77,1.12,7.9,7.9,0,0,1-3.23-1.09,4.3,4.3,0,0,1-1.82-2.24c-1.42-4.56,1.88-13.6,6.51-17.56a4.34,4.34,0,0,1,3.33-1.16,7.59,7.59,0,0,1,3.93,1.62,3.42,3.42,0,0,1,1.05,2.94,14.14,14.14,0,0,1-.82,4.25c-.2.53-.37.89-1.22.7a2.63,2.63,0,0,1-2.38-2.81c0-1.12.49-2.64-.23-2.94-1-.39-3.63,4-4.75,7.07-1.23,3.26-1.75,7.06-.6,7.49.63.23,1.49-.36,2.84-1.88a3,3,0,0,1,3.4-.89C278,402.1,277.82,402.86,277.26,404Z"/><path class="cls-2" d="M284.15,388.53c-.13-.66,0-.79.56-.92a47.27,47.27,0,0,1,9.54-1.25,1.15,1.15,0,0,1,1.29.92,7.47,7.47,0,0,1,.39,1.85c0,.72-.16,1-.89,1.05-1.51.17-3.4.4-5.18.7-.49,1.35-1.09,2.9-1.68,4.52a20.49,20.49,0,0,1,2.54-.23c.73,0,1.12.13,1.35.76a8.33,8.33,0,0,1,.47,1.91c.09.73-.1.93-.83,1.09-1.68.33-3.56.69-5.21,1.12-.37,1-.73,2.05-1,3a30.19,30.19,0,0,1,4-.53c.73-.07,1.16.1,1.39.72a7.34,7.34,0,0,1,.49,1.95c.1.73-.06,1-.79,1.12-1.88.43-4,.9-5.77,1.39a2,2,0,0,1-2.08-.36,8.06,8.06,0,0,1-1.32-1.42,2.59,2.59,0,0,1-.4-2.15c.66-2.93,2.54-8.71,4-13.07A8.59,8.59,0,0,1,284.15,388.53Z"/><path class="cls-2" d="M298.47,389.46c-.33-.79-.29-1.22.43-1.62,3.24-1.85,10.3-3,12.38,2.77,1.85,5.12-1.72,14-10.92,17.4a2.18,2.18,0,0,1-2.31-.27,17.26,17.26,0,0,1-1.89-1.75c-.66-.69-1-1.12-.52-2.83.92-3.4,2.34-8.16,3.59-12.05A15.92,15.92,0,0,1,298.47,389.46Zm8.75,2.61c-.36-1-1.58-1.69-3.3-1.06-1.45,3.93-2.84,8.28-4.09,12.61C306.2,400.45,307.91,394.11,307.22,392.07Z"/><path class="cls-2" d="M310.32,404.77a2.47,2.47,0,0,1,3.2-1.58,2.16,2.16,0,0,1,1.26,3,2.57,2.57,0,0,1-3.2,1.91A2.32,2.32,0,0,1,310.32,404.77Z"/><path class="cls-2" d="M23.6,437.35c-1.78,5.15-3.86,11.82-5.31,17-.2.69-.43.82-1.12.62a6.71,6.71,0,0,1-2.05-1c-.59-.43-.66-.93-.46-1.85.69-3.47,2.57-9.94,4-14.13-.79.14-1.58.3-2.08.4-.69.13-1,.07-1.42-.53a9.4,9.4,0,0,1-.92-2.38c-.13-.66.1-.82.63-.95a66.34,66.34,0,0,1,11-1.26c.76,0,1,.2,1.26.53A6.1,6.1,0,0,1,28,436c.1.69,0,.89-.76,1C26.15,437.09,24.76,437.22,23.6,437.35Z"/><path class="cls-2" d="M37.63,454.28c-.2.73-.43.86-1.12.66a6.19,6.19,0,0,1-2-.92c-.56-.43-.66-.86-.46-1.82.27-1.29.73-3,1.26-4.95-1.06.17-2.38.4-3.53.63-.73,2.37-1.39,4.62-1.89,6.37-.19.72-.46.86-1.15.66a7.68,7.68,0,0,1-2-1c-.59-.43-.69-.86-.49-1.81.26-1.23.72-3.07,1.28-5.15A6.76,6.76,0,0,1,27,445.5c-.1-.59,0-.79.53-1l.69-.19c1.06-3.73,2.24-7.69,3.07-9.94.33-.86.73-1,1.42-.69A9.92,9.92,0,0,1,35,435a1.13,1.13,0,0,1,.46,1.59c-.62,1.68-1.48,4.19-2.34,6.9,1.12-.14,2.48-.27,3.33-.33,1-3.3,2.05-6.67,2.87-9.05.3-.89.73-.92,1.46-.69A7.59,7.59,0,0,1,43,434.58a1.16,1.16,0,0,1,.43,1.58C41.82,440.62,39.34,448.41,37.63,454.28Z"/><path class="cls-2" d="M58.29,438.21c.23,4.49-1.62,11.68-5.35,15.35a4.75,4.75,0,0,1-4.22,1.35,7.62,7.62,0,0,1-3.17-1.12,4.74,4.74,0,0,1-1.69-2.38c-1.41-4.72,1.46-13.1,6-16.9a4.81,4.81,0,0,1,3.49-1A6.72,6.72,0,0,1,57,435,4.54,4.54,0,0,1,58.29,438.21Zm-9.18,5.44c-1.15,3.07-1.78,7.26-.56,7.76s3.07-2.38,4.39-6.3c1-3,1.75-7.56.69-7.89S50.27,440.55,49.11,443.65Z"/><path class="cls-2" d="M64.19,434.54c.3-.79.73-.89,1.46-.62a5.73,5.73,0,0,1,2,1.19,1.78,1.78,0,0,1,.39,2.21c-1.81,4.65-5.18,13.43-3.3,14.06,2.25.76,5.65-11.55,7.13-17,.23-.83.69-1,1.42-.73a7.86,7.86,0,0,1,2.21,1.19c.66.53.66.79.46,1.55-2.41,9-4.52,15.61-7.65,17.76a4.9,4.9,0,0,1-3.4.82,5.67,5.67,0,0,1-3.11-1.12,4.51,4.51,0,0,1-1.51-2.21C59,447.88,62,440.29,64.19,434.54Z"/><path class="cls-2" d="M89.41,442.83A2.6,2.6,0,0,1,86.87,440c0-1.16.29-2.78-.2-2.94-1-.33-3.37,3.07-5,6.83-1.36,3.2-1.85,7.23-.7,7.76,1,.43,2.48-1.42,3.6-3.73-1.68.1-2.47-.73-2.67-2.58-.07-.59.23-.76.79-.89,1.12-.29,3-.62,4-.76a1.69,1.69,0,0,1,1.88.63,12.27,12.27,0,0,1,.76,1.32,2.25,2.25,0,0,1,0,2.15,14.94,14.94,0,0,1-4.68,6.56,4.67,4.67,0,0,1-3.63.83A8,8,0,0,1,78,453.89a4.61,4.61,0,0,1-1.68-2.45c-1.29-4.75,2.18-13.86,7.1-17.49a4.34,4.34,0,0,1,3.2-.69,6.68,6.68,0,0,1,3.56,1.61,3.82,3.82,0,0,1,1.06,2.88,16.78,16.78,0,0,1-.66,4.35C90.33,442.7,90.1,442.93,89.41,442.83Z"/><path class="cls-2" d="M103.33,454.28c-.2.73-.43.86-1.12.66a6.24,6.24,0,0,1-2-.92c-.56-.43-.66-.86-.47-1.82.27-1.29.73-3,1.26-4.95-1.06.17-2.38.4-3.53.63-.73,2.37-1.39,4.62-1.88,6.37-.2.72-.47.86-1.16.66a7.68,7.68,0,0,1-2-1c-.59-.43-.69-.86-.49-1.81.26-1.23.72-3.07,1.29-5.15a6.85,6.85,0,0,1-.5-1.49c-.1-.59,0-.79.53-1l.69-.19c1.06-3.73,2.25-7.69,3.07-9.94.33-.86.73-1,1.42-.69a9.72,9.72,0,0,1,2.34,1.25,1.14,1.14,0,0,1,.47,1.59c-.63,1.68-1.49,4.19-2.35,6.9,1.13-.14,2.48-.27,3.34-.33,1-3.3,2-6.67,2.87-9.05.29-.89.72-.92,1.45-.69a7.59,7.59,0,0,1,2.21,1.19,1.15,1.15,0,0,1,.43,1.58C107.52,440.62,105.05,448.41,103.33,454.28Z"/><path class="cls-2" d="M121.09,437.35c-1.79,5.15-3.87,11.82-5.32,17-.2.69-.43.82-1.12.62a6.71,6.71,0,0,1-2.05-1c-.59-.43-.66-.93-.46-1.85.7-3.47,2.58-9.94,4-14.13-.79.14-1.58.3-2.08.4-.69.13-1,.07-1.42-.53a9.4,9.4,0,0,1-.92-2.38c-.13-.66.1-.82.63-.95a66.34,66.34,0,0,1,11-1.26c.76,0,1,.2,1.26.53a6.1,6.1,0,0,1,.82,2.18c.1.69,0,.89-.76,1C123.63,437.09,122.24,437.22,121.09,437.35Z"/><path class="cls-2" d="M133.26,437.91c-.46,1.22-1,2.77-1.58,4.46.79-.1,1.62-.2,2.44-.23a1.22,1.22,0,0,1,1.35.75,8.27,8.27,0,0,1,.47,1.92c.1.72-.07,1-.83,1.09-1.58.3-3.36.66-5,1.05-.86,2.61-1.68,5.22-2.28,7.2-.23.73-.59.86-1.28.66a7.28,7.28,0,0,1-2-.89c-.59-.43-.63-.89-.46-1.82a135.69,135.69,0,0,1,4.29-14.45,9.81,9.81,0,0,1-.76-2.12c-.17-.66.06-.75.56-.92a46.62,46.62,0,0,1,9.31-1.25,1.18,1.18,0,0,1,1.38.89,5.3,5.3,0,0,1,.47,1.91c0,.73-.14.93-.86,1C136.89,437.38,135.05,437.65,133.26,437.91Z"/><path class="cls-2" d="M143,434.54c.3-.79.73-.89,1.46-.62a5.73,5.73,0,0,1,2,1.19,1.78,1.78,0,0,1,.39,2.21c-1.81,4.65-5.18,13.43-3.3,14.06,2.25.76,5.65-11.55,7.13-17,.23-.83.69-1,1.42-.73a7.86,7.86,0,0,1,2.21,1.19c.66.53.66.79.46,1.55-2.41,9-4.52,15.61-7.65,17.76a4.9,4.9,0,0,1-3.4.82,5.67,5.67,0,0,1-3.11-1.12,4.51,4.51,0,0,1-1.51-2.21C137.75,447.88,140.72,440.29,143,434.54Z"/><path class="cls-2" d="M158,454.68a2.08,2.08,0,0,1-2.27-.3,7.32,7.32,0,0,1-1.32-1.45,2.25,2.25,0,0,1-.4-2,153,153,0,0,1,5.35-16.86,1,1,0,0,1,1.45-.66,8.3,8.3,0,0,1,2.38,1.19c.62.49.69.82.39,1.58-1.38,3.63-3.3,9.08-4.82,13.83a27.16,27.16,0,0,1,3.77-.49c.72-.07,1.12.06,1.38.72a7,7,0,0,1,.5,1.95c.13.73.1.92-.79,1.12C161.77,453.72,159.83,454.15,158,454.68Z"/><path class="cls-2" d="M171,454.68a2.1,2.1,0,0,1-2.28-.3,7.32,7.32,0,0,1-1.32-1.45,2.28,2.28,0,0,1-.4-2,153,153,0,0,1,5.35-16.86,1,1,0,0,1,1.45-.66,8.3,8.3,0,0,1,2.38,1.19c.63.49.69.82.39,1.58-1.38,3.63-3.3,9.08-4.81,13.83a27,27,0,0,1,3.76-.49c.72-.07,1.12.06,1.38.72a7,7,0,0,1,.5,1.95c.13.73.1.92-.79,1.12C174.68,453.72,172.73,454.15,171,454.68Z"/><path class="cls-2" d="M186.46,448.18c-.73,2.24-1.39,4.45-2,6.4-.2.72-.46.82-1.15.63a6.13,6.13,0,0,1-2-1c-.56-.47-.69-.9-.46-1.85.33-1.49.89-3.6,1.52-5.88-.5-3.93-1.22-8.68-1.72-11.95-.1-.72.07-1,.76-1.05a6.53,6.53,0,0,1,2.25,0c.69.17.95.56,1.15,1.49.33,1.65.73,4.32,1.06,6.93,1.68-2.64,3.5-5.61,5.08-8.19.4-.66.76-.72,1.39-.33a5,5,0,0,1,1.51,1.36c.43.59.37,1-.06,1.91C192.7,438.93,189.33,444,186.46,448.18Z"/><path class="cls-2" d="M206.13,454.38c-.24.69-.47.86-1.16.66a6.38,6.38,0,0,1-2-.92c-.56-.43-.66-.89-.46-1.82.63-3,2.37-8.81,3.86-13.56a17,17,0,0,1-.76-1.65c-.33-.83-.26-1.23.43-1.62,3.23-1.82,9.47-3.4,11.45-1a7.86,7.86,0,0,1,1.75,4.13c.23,1.85-.72,3.3-1.95,4.62-2,2.21-6,4.35-9.44,5.38C207.25,450.62,206.62,452.57,206.13,454.38Zm9.34-16.14c-.1-.73-2-.76-4.1.2-.59,1.58-1.25,3.46-1.94,5.48C213.49,442.43,215.7,439.56,215.47,438.24Z"/><path class="cls-2" d="M222.1,454.22c-.2.69-.43.82-1.13.66a6.08,6.08,0,0,1-1.78-.76c-.59-.43-.66-.89-.49-1.82.63-3,2.37-8.81,3.89-13.56a17.79,17.79,0,0,1-.79-1.65c-.3-.83-.26-1.23.43-1.62,3.23-1.82,9.44-3.37,11.45-1a8,8,0,0,1,1.75,4.13,5.44,5.44,0,0,1-1.91,4.62,21.53,21.53,0,0,1-5.35,3.63,50.32,50.32,0,0,0,4.06,5.68c.53.59.36.92-.1,1.32a3.22,3.22,0,0,1-1.42.69,2.14,2.14,0,0,1-2.31-.63,27.57,27.57,0,0,1-4.39-5.81C223.32,450.22,222.66,452.3,222.1,454.22Zm3.43-10.43c3.89-1.49,6.44-4.49,6.17-5.55-.16-.76-2-.92-4.16.1C226.92,439.89,226.26,441.77,225.53,443.79Z"/><path class="cls-2" d="M238.76,435.53c-.13-.66,0-.79.56-.92a47.27,47.27,0,0,1,9.54-1.25,1.15,1.15,0,0,1,1.29.92,7.47,7.47,0,0,1,.39,1.85c0,.72-.16,1-.89,1.05-1.51.17-3.4.4-5.18.7-.49,1.35-1.09,2.9-1.68,4.52a20.49,20.49,0,0,1,2.54-.23c.73,0,1.12.13,1.35.76a8.33,8.33,0,0,1,.47,1.91c.09.73-.1.93-.83,1.09-1.68.33-3.56.69-5.22,1.12-.36,1-.72,2.05-1,3a30,30,0,0,1,4-.53c.73-.07,1.16.1,1.39.72a7.34,7.34,0,0,1,.49,1.95c.1.73-.06,1-.79,1.12-1.88.43-4,.9-5.77,1.39a2,2,0,0,1-2.08-.36,8.06,8.06,0,0,1-1.32-1.42,2.59,2.59,0,0,1-.4-2.15c.66-2.93,2.54-8.71,4-13.07A8.59,8.59,0,0,1,238.76,435.53Z"/><path class="cls-2" d="M253.71,454.38c-.23.69-.46.86-1.15.66a6.28,6.28,0,0,1-2-.92c-.57-.43-.66-.89-.47-1.82.63-3,2.38-8.81,3.86-13.56a14.87,14.87,0,0,1-.75-1.65c-.33-.83-.27-1.23.42-1.62,3.24-1.82,9.48-3.4,11.46-1a7.86,7.86,0,0,1,1.75,4.13c.23,1.85-.73,3.3-2,4.62-2,2.21-6,4.35-9.44,5.38C254.83,450.62,254.21,452.57,253.71,454.38Zm9.34-16.14c-.1-.73-2-.76-4.09.2-.6,1.58-1.26,3.46-1.95,5.48C261.07,442.43,263.28,439.56,263.05,438.24Z"/><path class="cls-2" d="M269.25,450.52c-.72,1.35-1.38,2.64-1.94,3.76-.37.69-.63.73-1.26.46a4.1,4.1,0,0,1-1.58-1.09c-.46-.52-.46-1-.07-1.91a166.48,166.48,0,0,1,9.31-17.29,2.31,2.31,0,0,1,2.28-1.23,13.91,13.91,0,0,1,4.19.93c.79.33.89.82.76,1.65-.6,4.16-1.36,12.11-1.78,18.22,0,.76-.24,1-1,1a7.26,7.26,0,0,1-2.05-.29c-.66-.23-.86-.66-.86-1.65s.07-2.31.14-3.73C273.31,449.66,270.94,450.06,269.25,450.52Zm6.41-5.28c.19-2.61.46-5.32.76-7.66-1.29,2.18-3,5.15-4.62,8.15C273.08,445.53,274.4,445.34,275.66,445.24Z"/><path class="cls-2" d="M285.82,454.22c-.2.69-.43.82-1.12.66a6,6,0,0,1-1.78-.76c-.6-.43-.66-.89-.5-1.82.63-3,2.38-8.81,3.89-13.56a17.79,17.79,0,0,1-.79-1.65c-.29-.83-.26-1.23.43-1.62,3.24-1.82,9.44-3.37,11.45-1a8,8,0,0,1,1.75,4.13,5.42,5.42,0,0,1-1.91,4.62,21.53,21.53,0,0,1-5.35,3.63,50.32,50.32,0,0,0,4.06,5.68c.53.59.37.92-.1,1.32a3.17,3.17,0,0,1-1.42.69,2.14,2.14,0,0,1-2.31-.63,27.92,27.92,0,0,1-4.39-5.81C287,450.22,286.38,452.3,285.82,454.22Zm3.43-10.43c3.9-1.49,6.44-4.49,6.17-5.55-.16-.76-2-.92-4.16.1C290.64,439.89,290,441.77,289.25,443.79Z"/><path class="cls-2" d="M302.48,435.53c-.13-.66,0-.79.57-.92a47.07,47.07,0,0,1,9.53-1.25,1.13,1.13,0,0,1,1.29.92,8,8,0,0,1,.4,1.85c0,.72-.17,1-.89,1.05-1.52.17-3.4.4-5.19.7-.49,1.35-1.09,2.9-1.68,4.52a20.66,20.66,0,0,1,2.54-.23c.73,0,1.13.13,1.36.76a8.3,8.3,0,0,1,.46,1.91c.1.73-.1.93-.83,1.09-1.68.33-3.56.69-5.21,1.12-.37,1-.73,2.05-1,3a30.41,30.41,0,0,1,4-.53c.73-.07,1.16.1,1.39.72a7.38,7.38,0,0,1,.5,1.95c.1.73-.07,1-.8,1.12-1.88.43-4,.9-5.77,1.39a2,2,0,0,1-2.08-.36,8.06,8.06,0,0,1-1.32-1.42,2.66,2.66,0,0,1-.4-2.15c.66-2.93,2.54-8.71,4-13.07A8.63,8.63,0,0,1,302.48,435.53Z"/><path class="cls-2" d="M316.81,436.46c-.33-.79-.3-1.22.43-1.62,3.23-1.85,10.29-3,12.37,2.77,1.85,5.12-1.71,14-10.92,17.4a2.18,2.18,0,0,1-2.31-.27A17.17,17.17,0,0,1,314.5,453c-.66-.69-1-1.12-.53-2.83.92-3.4,2.34-8.16,3.6-12.05A12.61,12.61,0,0,1,316.81,436.46Zm8.74,2.61c-.36-1-1.58-1.69-3.3-1.06-1.45,3.93-2.84,8.28-4.09,12.61C324.53,447.45,326.25,441.11,325.55,439.07Z"/><path class="cls-2" d="M328.65,451.77a2.47,2.47,0,0,1,3.2-1.58,2.16,2.16,0,0,1,1.26,3,2.57,2.57,0,0,1-3.2,1.91A2.33,2.33,0,0,1,328.65,451.77Z"/><line class="cls-5" x1="8.65" y1="287.79" x2="132.5" y2="287.79"/><line class="cls-5" x1="226.63" y1="287.79" x2="350.48" y2="287.79"/></g></g></svg>