<?xml version="1.0" encoding="utf-8"?>
<!-- Generator: Adobe Illustrator 16.0.0, SVG Export Plug-In . SVG Version: 6.00 Build 0)  -->
<!DOCTYPE svg PUBLIC "-//W3C//DTD SVG 1.1//EN" "http://www.w3.org/Graphics/SVG/1.1/DTD/svg11.dtd">
<svg version="1.1" id="Capa_1" xmlns="http://www.w3.org/2000/svg" xmlns:xlink="http://www.w3.org/1999/xlink" x="0px" y="0px"
	 width="767.614px" height="424.355px" viewBox="0 0 767.614 424.355" enable-background="new 0 0 767.614 424.355"
	 xml:space="preserve">
<g>
	<g>
		<g>
			<rect x="445.809" y="261.459" fill="#838383" width="12.828" height="67.101"/>
			<path fill="#838383" d="M350.585,328.56v-95.388h32.729c29.768,0,45.72,21.051,45.72,47.693c0,27.137-16.61,47.694-45.885,47.694
				H350.585z M380.846,317.212c23.025,0,35.359-12.006,35.359-36.347c0-24.833-13.156-36.346-34.865-36.346h-17.927v72.692H380.846z
				"/>
			<path fill="#838383" d="M444,239.093c0-4.604,3.618-8.224,8.224-8.224c4.604,0,8.223,3.619,8.223,8.224s-3.618,8.224-8.223,8.224
				C447.618,247.316,444,243.533,444,239.093z"/>
			<rect x="315.555" y="261.459" fill="#838383" width="12.828" height="67.101"/>
			<path fill="#838383" d="M219.839,328.56v-95.388h32.728c29.768,0,45.721,21.051,45.721,47.693
				c0,27.137-16.611,47.694-45.885,47.694H219.839z M250.1,317.212c23.024,0,35.359-12.006,35.359-36.347
				c0-24.833-13.157-36.346-34.866-36.346h-17.926v72.692H250.1z"/>
			<path fill="#838383" d="M313.747,239.093c0-4.604,3.618-8.224,8.223-8.224c4.605,0,8.224,3.619,8.224,8.224
				s-3.618,8.224-8.224,8.224C317.529,247.316,313.747,243.533,313.747,239.093z"/>
		</g>
		<g>
			<path fill="#838383" d="M585.108,259.486c-21.545,0-33.386,12.334-33.386,34.537c0,22.366,11.841,34.536,33.386,34.536
				c21.544,0,33.385-12.335,33.385-34.536C618.329,271.656,606.488,259.486,585.108,259.486z M585.108,320.666
				c-17.104,0-25.492-8.717-25.492-26.808s8.388-26.808,25.492-26.808c17.104,0,25.491,8.717,25.491,26.808
				S602.211,320.666,585.108,320.666z"/>
			<path fill="#838383" d="M658.458,259.486c-21.545,0-33.386,12.334-33.386,34.537c0,22.366,11.841,34.536,33.386,34.536
				c21.544,0,33.385-12.335,33.385-34.536C691.678,271.656,679.837,259.486,658.458,259.486z M658.458,320.666
				c-17.104,0-25.492-8.717-25.492-26.808s8.388-26.808,25.492-26.808c17.104,0,25.491,8.717,25.491,26.808
				S675.561,320.666,658.458,320.666z"/>
			<polygon fill="#838383" points="503.371,238.6 553.367,238.6 553.367,231.199 495.312,231.199 495.312,328.56 503.371,328.56 
				503.371,285.307 544.815,285.307 544.815,277.741 503.371,277.741 			"/>
			<path fill="#838383" d="M754.667,232.514v36.676c-5.427-6.414-13.65-9.868-24.505-9.868c-20.558,0-31.905,12.335-31.905,34.702
				c0,22.366,11.348,34.701,31.905,34.701c10.69,0,18.913-3.454,24.341-9.703l0.657,8.551h7.072v-96.703L754.667,232.514z
				 M730.327,320.666c-16.117,0-24.012-8.717-24.012-26.808s7.895-26.808,24.012-26.808s24.011,8.717,24.011,26.808
				S746.444,320.666,730.327,320.666z"/>
		</g>
	</g>
	<path fill="#F47C46" d="M92.217,318.856c29.438-0.987,52.957-24.341,53.285-53.614v-24.998h32.399v27.794
		c-0.658,45.062-39.8,80.75-85.685,81.737l0,0C45.51,349.446,6.04,313.594,5.382,268.038v-49.832c0-5.099,3.289-8.388,8.223-8.388
		h131.733v30.426H42.057c-2.632,0-4.276,1.645-4.276,4.275v20.229C38.11,294.352,61.957,318.527,92.217,318.856L92.217,318.856z"/>
</g>
</svg>
